<mxfile host="app.diagrams.net" modified="2022-09-19T04:09:54.366Z" agent="5.0 (Macintosh; Intel Mac OS X 10_15_6) AppleWebKit/605.1.15 (KHTML, like Gecko) Version/15.4 Safari/605.1.15" etag="AtdGrE-twtr5eRltvwLm" version="20.3.2" type="github">
  <diagram id="TQH5ALK7jOW8blOBlN88" name="Page-1">
    <mxGraphModel dx="471" dy="849" grid="1" gridSize="10" guides="1" tooltips="1" connect="1" arrows="1" fold="1" page="1" pageScale="1" pageWidth="3300" pageHeight="2339" math="0" shadow="0">
      <root>
        <mxCell id="0" />
        <mxCell id="1" parent="0" />
        <mxCell id="iYuoCVCzVzN60Lq0rPCa-4" value="" style="verticalLabelPosition=bottom;verticalAlign=top;html=1;shape=mxgraph.flowchart.on-page_reference;fillStyle=solid;fillColor=#000000;" vertex="1" parent="1">
          <mxGeometry x="120" y="620" width="40" height="40" as="geometry" />
        </mxCell>
        <mxCell id="iYuoCVCzVzN60Lq0rPCa-6" value="" style="endArrow=classic;html=1;rounded=0;" edge="1" parent="1">
          <mxGeometry width="50" height="50" relative="1" as="geometry">
            <mxPoint x="160" y="640" as="sourcePoint" />
            <mxPoint x="250" y="640" as="targetPoint" />
          </mxGeometry>
        </mxCell>
        <mxCell id="iYuoCVCzVzN60Lq0rPCa-10" value="" style="rhombus;whiteSpace=wrap;html=1;fillStyle=auto;fontFamily=Helvetica;fontSize=11;fontColor=default;fillColor=none;" vertex="1" parent="1">
          <mxGeometry x="250" y="600" width="80" height="80" as="geometry" />
        </mxCell>
        <mxCell id="iYuoCVCzVzN60Lq0rPCa-12" value="GameState" style="text;html=1;strokeColor=none;fillColor=none;align=center;verticalAlign=middle;whiteSpace=wrap;rounded=0;fillStyle=auto;fontFamily=Helvetica;fontSize=11;fontColor=default;" vertex="1" parent="1">
          <mxGeometry x="260" y="620" width="60" height="40" as="geometry" />
        </mxCell>
        <mxCell id="iYuoCVCzVzN60Lq0rPCa-13" value="win_second_player" style="html=1;verticalAlign=bottom;endArrow=block;rounded=0;labelBackgroundColor=default;strokeColor=default;fontFamily=Helvetica;fontSize=11;fontColor=default;shape=connector;" edge="1" parent="1">
          <mxGeometry width="80" relative="1" as="geometry">
            <mxPoint x="310" y="618.89" as="sourcePoint" />
            <mxPoint x="440" y="580" as="targetPoint" />
          </mxGeometry>
        </mxCell>
        <mxCell id="iYuoCVCzVzN60Lq0rPCa-14" value="In progress" style="html=1;verticalAlign=bottom;endArrow=block;rounded=0;labelBackgroundColor=default;strokeColor=default;fontFamily=Helvetica;fontSize=11;fontColor=default;shape=connector;" edge="1" parent="1">
          <mxGeometry width="80" relative="1" as="geometry">
            <mxPoint x="290" y="598.5699999999999" as="sourcePoint" />
            <mxPoint x="290" y="510" as="targetPoint" />
          </mxGeometry>
        </mxCell>
        <mxCell id="iYuoCVCzVzN60Lq0rPCa-15" value="Tie" style="html=1;verticalAlign=bottom;endArrow=block;rounded=0;labelBackgroundColor=default;strokeColor=default;fontFamily=Helvetica;fontSize=11;fontColor=default;shape=connector;" edge="1" parent="1">
          <mxGeometry width="80" relative="1" as="geometry">
            <mxPoint x="290" y="680" as="sourcePoint" />
            <mxPoint x="290" y="770" as="targetPoint" />
          </mxGeometry>
        </mxCell>
        <mxCell id="iYuoCVCzVzN60Lq0rPCa-16" value="win_first_player" style="html=1;verticalAlign=bottom;endArrow=block;rounded=0;labelBackgroundColor=default;strokeColor=default;fontFamily=Helvetica;fontSize=11;fontColor=default;shape=connector;" edge="1" parent="1">
          <mxGeometry width="80" relative="1" as="geometry">
            <mxPoint x="310" y="660" as="sourcePoint" />
            <mxPoint x="440" y="720" as="targetPoint" />
          </mxGeometry>
        </mxCell>
        <mxCell id="iYuoCVCzVzN60Lq0rPCa-25" value="" style="rounded=1;whiteSpace=wrap;html=1;fillStyle=auto;fontFamily=Helvetica;fontSize=11;fontColor=default;fillColor=none;" vertex="1" parent="1">
          <mxGeometry x="230" y="450" width="120" height="60" as="geometry" />
        </mxCell>
      </root>
    </mxGraphModel>
  </diagram>
</mxfile>
